<svg width="54" height="37" viewBox="0 0 54 37" fill="none" xmlns="http://www.w3.org/2000/svg">
<path d="M45.5 36H51.0316C51.3284 36 51.6099 35.8682 51.7998 35.6402L52.6332 34.6402C53.176 33.9889 52.7128 33 51.865 33H1.86852C1.06982 33 0.59343 33.8901 1.03647 34.5547L1.70313 35.5547C1.8886 35.8329 2.20083 36 2.53518 36H42.5" stroke="white" stroke-width="1.5" stroke-linecap="round"/>
<path d="M4 32.5V3C4 1.89543 4.89543 1 6 1H49.5C50.6046 1 51.5 1.89543 51.5 3V32.5" stroke="white" stroke-width="1.5" stroke-linecap="round"/>
<path d="M11 30H8.5C7.94772 30 7.5 29.5523 7.5 29V5C7.5 4.44772 7.94772 4 8.5 4H47.5C48.0523 4 48.5 4.44772 48.5 5V29C48.5 29.5523 48.0523 30 47.5 30H15.5" stroke="white" stroke-width="1.5" stroke-linecap="round"/>
</svg>
