<svg width="12" height="12" viewBox="0 0 12 12" fill="none" xmlns="http://www.w3.org/2000/svg">
<path d="M5.1535 0.997736C5.09371 0.965022 5.02665 0.947876 4.9585 0.947876C4.89034 0.947876 4.82328 0.965022 4.7635 0.997736L0.533079 3.30524C0.255746 3.4569 0.0834961 3.74669 0.0834961 4.06249V8.53124C0.0834961 8.99813 0.268968 9.4459 0.59911 9.77604C0.929252 10.1062 1.37702 10.2917 1.84391 10.2917H8.07308C8.53997 10.2917 8.98774 10.1062 9.31788 9.77604C9.64802 9.4459 9.8335 8.99813 9.8335 8.53124V4.06249C9.8335 3.74669 9.66125 3.45636 9.38391 3.30524L5.1535 0.997736ZM4.9585 6.0374L1.08991 3.92707L4.9585 1.81674L8.82708 3.92707L4.9585 6.0374ZM5.1535 6.8564L9.021 4.74661V8.53124C9.021 8.78264 8.92113 9.02374 8.74336 9.20151C8.56559 9.37928 8.32448 9.47915 8.07308 9.47915H1.84391C1.59251 9.47915 1.3514 9.37928 1.17363 9.20151C0.995866 9.02374 0.895996 8.78264 0.895996 8.53124V4.74661L4.7635 6.8564C4.82328 6.88912 4.89034 6.90626 4.9585 6.90626C5.02665 6.90626 5.09371 6.88912 5.1535 6.8564ZM10.3752 4.06844C10.6244 4.22752 10.8295 4.44685 10.9715 4.70616C11.1135 4.96548 11.1878 5.25641 11.1877 5.55207V8.80207C11.1877 9.55628 10.8881 10.2796 10.3547 10.8129C9.82144 11.3462 9.09812 11.6458 8.34391 11.6458H3.46891C3.17316 11.6461 2.88212 11.5718 2.6227 11.4298C2.36329 11.2878 2.14387 11.0826 1.98475 10.8333H8.34391C8.88263 10.8333 9.39929 10.6193 9.78022 10.2384C10.1612 9.85745 10.3752 9.34079 10.3752 8.80207V4.06844Z" fill="#FF3A00"/>
</svg>
