<svg width="30" height="30" viewBox="0 0 30 30" fill="none" xmlns="http://www.w3.org/2000/svg">
<path d="M14.134 1.5C14.5189 0.833332 15.4811 0.833333 15.866 1.5L27.1244 21C27.5093 21.6667 27.0281 22.5 26.2583 22.5H3.74167C2.97187 22.5 2.49074 21.6667 2.87564 21L14.134 1.5Z" fill="#FF0000"/>
<path d="M15.1738 17.0352H14.1094L13.6602 6.72266H15.623L15.1738 17.0352ZM13.4648 19.9844C13.4648 19.5286 13.5755 19.2064 13.7969 19.0176C14.0182 18.8223 14.2949 18.7246 14.627 18.7246C14.9525 18.7246 15.2259 18.8223 15.4473 19.0176C15.6751 19.2064 15.7891 19.5286 15.7891 19.9844C15.7891 20.4336 15.6751 20.7624 15.4473 20.9707C15.2259 21.1725 14.9525 21.2734 14.627 21.2734C14.2949 21.2734 14.0182 21.1725 13.7969 20.9707C13.5755 20.7624 13.4648 20.4336 13.4648 19.9844Z" fill="white"/>
</svg>
