<svg width="11" height="11" viewBox="0 0 11 11" fill="none" xmlns="http://www.w3.org/2000/svg">
<path d="M9.56246 10.7812H9.4934C1.51059 10.3222 0.377151 3.58656 0.218713 1.53094C0.205947 1.37111 0.224843 1.21034 0.274319 1.05782C0.323794 0.905311 0.402877 0.764061 0.507036 0.642165C0.611195 0.520269 0.738382 0.420123 0.881311 0.347466C1.02424 0.274809 1.1801 0.231068 1.33996 0.21875H3.5784C3.74113 0.218593 3.90015 0.267301 4.03488 0.358566C4.1696 0.449831 4.27382 0.579447 4.33403 0.730626L4.95153 2.25C5.01098 2.39769 5.02574 2.55959 4.99396 2.7156C4.96218 2.8716 4.88527 3.01484 4.77278 3.1275L3.90746 4.00094C4.04263 4.76905 4.41048 5.47712 4.96123 6.02933C5.51199 6.58154 6.21908 6.95125 6.98684 7.08844L7.8684 6.215C7.98276 6.10375 8.12734 6.02863 8.28411 5.99901C8.44088 5.96939 8.6029 5.98658 8.74996 6.04844L10.2815 6.66188C10.4304 6.72398 10.5575 6.82901 10.6465 6.96358C10.7354 7.09816 10.7824 7.25617 10.7812 7.4175V9.5625C10.7812 9.88573 10.6528 10.1957 10.4242 10.4243C10.1957 10.6528 9.8857 10.7812 9.56246 10.7812ZM1.43746 1.03125C1.32972 1.03125 1.22639 1.07405 1.1502 1.15024C1.07401 1.22642 1.03121 1.32976 1.03121 1.4375V1.47C1.21809 3.875 2.41653 9.5625 9.53809 9.96875C9.59146 9.97205 9.64496 9.96478 9.69551 9.94736C9.74607 9.92993 9.79268 9.9027 9.83269 9.86722C9.8727 9.83175 9.90531 9.78872 9.92865 9.74061C9.95199 9.6925 9.96561 9.64026 9.96871 9.58687V7.4175L8.43715 6.80406L7.27121 7.96187L7.07621 7.9375C3.54184 7.49469 3.06246 3.96031 3.06246 3.92375L3.03809 3.72875L4.19184 2.56281L3.58246 1.03125H1.43746Z" fill="#FF3A00"/>
</svg>
